<?xml version="1.0" standalone="no"?>
<!DOCTYPE svg PUBLIC "-//W3C//DTD SVG 20010904//EN"
 "http://www.w3.org/TR/2001/REC-SVG-20010904/DTD/svg10.dtd">
<svg version="1.0" xmlns="http://www.w3.org/2000/svg"
 width="291.000000pt" height="291.000000pt" viewBox="0 0 291.000000 291.000000"
 preserveAspectRatio="xMidYMid meet">
<metadata>
Created by potrace 1.11, written by Peter Selinger 2001-2013
</metadata>
<g transform="translate(0.000000,291.000000) scale(0.100000,-0.100000)"
fill="#000000" stroke="none">
<path d="M1348 2895 c-2 -1 -37 -6 -77 -9 -41 -4 -78 -9 -81 -11 -4 -2 -17 -6
-31 -8 -247 -46 -515 -189 -712 -381 -356 -346 -508 -839 -410 -1326 122 -607
632 -1076 1248 -1147 78 -9 251 -9 340 0 146 14 338 73 487 148 407 206 710
628 775 1081 10 67 10 348 1 408 -48 306 -178 578 -378 787 -121 126 -202 190
-344 271 -149 86 -313 143 -491 172 -63 11 -319 22 -327 15z m307 -105 c427
-67 791 -326 997 -711 64 -118 117 -278 143 -429 14 -81 14 -307 -1 -400 -70
-449 -355 -830 -766 -1025 -112 -53 -201 -82 -342 -110 -85 -18 -317 -24 -399
-11 -165 26 -299 67 -428 131 -471 232 -764 709 -760 1235 1 47 3 96 5 110 3
14 7 48 11 75 30 242 169 528 352 721 225 237 540 395 843 420 41 4 76 8 78 9
7 6 203 -6 267 -15z"/>
<path d="M843 2246 c-122 -39 -222 -136 -287 -277 -43 -94 -55 -151 -51 -252
3 -93 25 -153 96 -259 42 -64 139 -189 168 -219 9 -9 35 -38 57 -65 47 -55 62
-72 142 -163 221 -249 352 -436 375 -532 14 -58 76 -42 78 19 4 188 0 1188 -5
1227 -34 254 -186 461 -380 519 -57 17 -143 18 -193 2z"/>
<path d="M1892 2250 c-140 -30 -291 -175 -353 -340 -49 -130 -51 -155 -51
-818 -1 -668 -1 -659 48 -646 14 4 25 19 33 47 30 101 135 246 404 555 94 109
188 218 207 242 19 24 40 48 45 54 6 6 26 34 45 61 18 28 37 52 41 55 16 12
80 152 88 194 20 108 -5 245 -65 356 -45 82 -148 184 -218 216 -61 28 -157 38
-224 24z"/>
</g>
</svg>
